<?xml version="1.0" encoding="iso-8859-1"?>
<!-- Generator: Adobe Illustrator 19.0.0, SVG Export Plug-In . SVG Version: 6.00 Build 0)  -->
<svg version="1.1" id="Capa_1" xmlns="http://www.w3.org/2000/svg" xmlns:xlink="http://www.w3.org/1999/xlink" x="0px" y="0px"
	 viewBox="0 0 468.524 468.524" style="enable-background:new 0 0 468.524 468.524;" xml:space="preserve">
<g>
	<path d="M0.132,37.641c-1.166-9.616,5.536-18.357,15.152-19.523s18.357,5.536,19.523,15.152l10.49,81.297
		c39.629-58.86,106.648-95.284,178.912-95.284c92.079,0,173.959,58.569,203.972,145.403c3.205,9.033-1.748,18.94-10.781,22.145
		c-1.748,0.583-3.788,0.874-5.828,0.874c-7.285,0-13.987-4.662-16.609-11.656c-25.059-72.847-93.827-121.8-170.753-121.8
		c-62.94,0-121.509,33.218-154.144,86.251l87.416-9.907c9.616-1.166,18.357,5.828,19.232,15.444
		c0.874,9.616-5.828,18.357-15.444,19.232L35.39,179.547c-0.583,0-1.457,0-2.04,0c-8.742,0-16.318-6.411-17.192-15.152L0.132,37.641
		z M433.134,271.625l-125.88,14.278c-9.616,1.166-16.609,9.616-15.444,19.232c1.166,9.616,9.616,16.609,19.232,15.444l76.052-8.45
		c-29.722,62.648-92.953,103.151-163.177,103.151c-78.966,0-150.065-52.741-172.793-128.211
		c-2.914-9.324-12.53-14.569-21.854-11.656s-14.569,12.53-11.656,21.854c13.112,43.417,40.503,82.463,76.635,109.853
		c37.589,28.265,82.463,43.417,129.668,43.417c86.251,0,163.469-51.284,197.561-129.085l12.238,97.032
		c1.166,8.742,8.742,15.152,17.192,15.152c0.874,0,1.457,0,2.331,0c9.616-1.166,16.318-9.907,15.152-19.523L452.074,287.36
		C451.2,277.453,442.75,270.751,433.134,271.625z"/>
</g>
<g>
</g>
<g>
</g>
<g>
</g>
<g>
</g>
<g>
</g>
<g>
</g>
<g>
</g>
<g>
</g>
<g>
</g>
<g>
</g>
<g>
</g>
<g>
</g>
<g>
</g>
<g>
</g>
<g>
</g>
</svg>
